<?xml version="1.0" encoding="UTF-8" standalone="no" ?>
<!DOCTYPE svg PUBLIC "-//W3C//DTD SVG 1.1//EN" "http://www.w3.org/Graphics/SVG/1.1/DTD/svg11.dtd">
<svg xmlns="http://www.w3.org/2000/svg" xmlns:xlink="http://www.w3.org/1999/xlink" version="1.1" width="1080" height="1080" viewBox="0 0 1080 1080" xml:space="preserve">
<desc>Created with Fabric.js 5.2.4</desc>
<defs>
</defs>
<g transform="matrix(1 0 0 1 540 540)" id="9cd16d9a-72d4-45d5-8282-013b8443387f"  >
<rect style="stroke: none; stroke-width: 1; stroke-dasharray: none; stroke-linecap: butt; stroke-dashoffset: 0; stroke-linejoin: miter; stroke-miterlimit: 4; fill: rgb(255,255,255); fill-rule: nonzero; opacity: 1; visibility: hidden;" vector-effect="non-scaling-stroke"  x="-540" y="-540" rx="0" ry="0" width="1080" height="1080" />
</g>
<g transform="matrix(1 0 0 1 540 540)" id="37e909f5-0c2e-4adc-9f87-ac5df5c65c42"  >
</g>
<g transform="matrix(8.52 0 0 8.52 540 540)" id="21cdc57f-c3f1-49b9-8ea9-8ad29bf7a88f"  >
<path style="stroke: rgb(0,0,0); stroke-width: 0; stroke-dasharray: none; stroke-linecap: butt; stroke-dashoffset: 0; stroke-linejoin: miter; stroke-miterlimit: 4; fill: rgb(255,255,255); fill-rule: nonzero; opacity: 1;" vector-effect="non-scaling-stroke"  transform=" translate(-56.51, -61.44)" d="M 44.13 102.06 C 42.99 102.09 41.99 101.25 41.830000000000005 100.10000000000001 C 41.660000000000004 98.9 42.470000000000006 97.79 43.650000000000006 97.56 C 42.35000000000001 90.19 38.800000000000004 86.13 35.050000000000004 81.84 C 32.13 78.5 29.100000000000005 75.03 26.710000000000004 69.92 C 24.360000000000003 64.89 23.070000000000004 59.69 23.110000000000003 54.29 C 23.160000000000004 48.89 24.53 43.33 27.510000000000005 37.58 C 27.530000000000005 37.54 27.550000000000004 37.51 27.570000000000004 37.47 L 27.570000000000004 37.47 C 31.480000000000004 30.849999999999998 36.95 26.43 43.040000000000006 23.95 C 48.150000000000006 21.86 53.7 21.15 59.14000000000001 21.65 C 64.56 22.15 69.87 23.849999999999998 74.51 26.59 C 80.41000000000001 30.08 85.26 35.26 87.93 41.8 C 89.37 45.339999999999996 90.35000000000001 49.29 90.47000000000001 53.62 C 90.59000000000002 57.93 89.85000000000001 62.58 87.86000000000001 67.5 C 85.20000000000002 74.09 81.68 78.18 78.39000000000001 82.01 C 75.36000000000001 85.54 72.54000000000002 88.82000000000001 70.97000000000001 93.85000000000001 C 71.86000000000001 94.06 72.56000000000002 94.79 72.70000000000002 95.75000000000001 C 72.87000000000002 96.99000000000001 72.00000000000001 98.14000000000001 70.76000000000002 98.31000000000002 L 69.99000000000002 98.42000000000002 C 69.85000000000002 99.51000000000002 69.76000000000002 100.68000000000002 69.72000000000003 101.93000000000002 L 69.97000000000003 101.89000000000001 C 71.21000000000002 101.72000000000001 72.36000000000003 102.59000000000002 72.53000000000003 103.83000000000001 C 72.70000000000003 105.07000000000001 71.83000000000003 106.22000000000001 70.59000000000003 106.39000000000001 L 69.81000000000003 106.50000000000001 C 69.82000000000004 106.65000000000002 69.83000000000003 106.80000000000001 69.84000000000003 106.95000000000002 L 69.84000000000003 106.95000000000002 C 69.91000000000003 107.83000000000001 69.92000000000003 108.68000000000002 69.87000000000003 109.49000000000002 L 70.00000000000003 109.47000000000003 C 71.25000000000003 109.32000000000002 72.38000000000002 110.21000000000002 72.54000000000003 111.45000000000003 C 72.69000000000004 112.70000000000003 71.80000000000004 113.83000000000003 70.56000000000003 113.99000000000004 L 68.88000000000002 114.20000000000003 C 67.68000000000002 117.31000000000003 65.54000000000002 119.67000000000003 63.010000000000026 121.14000000000003 C 61.270000000000024 122.15000000000003 59.340000000000025 122.73000000000003 57.40000000000003 122.85000000000002 C 55.43000000000003 122.97000000000003 53.440000000000026 122.60000000000002 51.620000000000026 121.72000000000003 C 49.54000000000003 120.70000000000003 47.68000000000003 119.01000000000003 46.33000000000003 116.58000000000003 C 45.68000000000003 116.25000000000003 45.200000000000024 115.61000000000003 45.10000000000003 114.83000000000003 C 45.06000000000003 114.52000000000002 45.09000000000003 114.22000000000003 45.17000000000003 113.94000000000003 C 44.78000000000003 112.78000000000003 44.48000000000003 111.51000000000002 44.30000000000003 110.11000000000003 L 44.23000000000003 110.12000000000003 C 42.99000000000003 110.29000000000003 41.84000000000003 109.42000000000003 41.67000000000003 108.18000000000004 C 41.50000000000003 106.94000000000004 42.37000000000003 105.79000000000003 43.61000000000003 105.62000000000003 L 44.15000000000003 105.54000000000003 C 44.19 104.32 44.18 103.16 44.13 102.06 L 44.13 102.06 L 44.13 102.06 z M 66.41 40.34 C 66.99 40.35 67.58 40.46 68.14999999999999 40.650000000000006 C 69.35 41.06 70.49999999999999 41.85000000000001 71.38999999999999 42.900000000000006 C 72.27999999999999 43.96000000000001 72.91999999999999 45.290000000000006 73.07999999999998 46.77 C 73.14999999999998 47.42 73.12999999999998 48.09 72.99999999999999 48.78 C 73.61999999999999 49.35 74.13999999999999 49.980000000000004 74.52999999999999 50.660000000000004 C 75.16999999999999 51.75000000000001 75.49999999999999 52.96 75.46 54.190000000000005 C 75.41999999999999 55.43000000000001 75.02 56.67 74.16999999999999 57.81 C 73.65999999999998 58.5 72.98999999999998 59.150000000000006 72.14999999999999 59.74 C 72.21 61.580000000000005 71.66 63.24 70.77 64.52 C 69.78 65.95 68.36 66.94 66.86999999999999 67.25 C 66.50999999999999 68.54 65.63999999999999 69.68 64.53999999999999 70.47 C 63.099999999999994 71.5 61.21999999999999 71.98 59.49999999999999 71.51 C 58.31999999999999 71.19000000000001 57.239999999999995 70.44000000000001 56.459999999999994 69.16000000000001 C 55.519999999999996 70.58000000000001 54.279999999999994 71.34000000000002 52.98 71.61000000000001 C 51.32 71.96000000000001 49.599999999999994 71.45000000000002 48.3 70.44000000000001 C 47.3 69.66000000000001 46.54 68.57000000000001 46.239999999999995 67.33000000000001 C 45.76 67.29 45.269999999999996 67.19000000000001 44.8 67.03000000000002 C 43.629999999999995 66.63000000000001 42.5 65.87000000000002 41.629999999999995 64.85000000000001 C 40.74999999999999 63.830000000000005 40.099999999999994 62.55000000000001 39.9 61.12000000000001 C 39.8 60.41000000000001 39.809999999999995 59.66000000000001 39.96 58.90000000000001 C 39.42 58.40000000000001 38.96 57.84000000000001 38.58 57.23000000000001 C 37.91 56.14000000000001 37.53 54.91000000000001 37.55 53.640000000000015 C 37.57 52.360000000000014 37.97 51.070000000000014 38.849999999999994 49.87000000000001 C 39.339999999999996 49.20000000000001 39.989999999999995 48.56000000000001 40.8 47.97000000000001 C 40.79 47.77000000000001 40.79 47.570000000000014 40.8 47.38000000000001 C 40.87 45.52000000000001 41.55 43.89000000000001 42.54 42.68000000000001 C 42.57 42.650000000000006 42.589999999999996 42.620000000000005 42.62 42.59 C 43.61 41.42 44.9 40.64 46.239999999999995 40.410000000000004 C 46.28999999999999 40.230000000000004 46.339999999999996 40.06 46.39999999999999 39.88 C 46.86999999999999 38.620000000000005 47.81999999999999 37.540000000000006 48.989999999999995 36.86 C 50.169999999999995 36.17 51.589999999999996 35.87 52.96999999999999 36.16 C 54.209999999999994 36.419999999999995 55.39999999999999 37.129999999999995 56.31999999999999 38.43 C 57.239999999999995 37.13 58.42999999999999 36.42 59.669999999999995 36.16 C 60.92999999999999 35.9 62.21999999999999 36.12 63.33 36.68 C 64.42 37.23 65.36 38.12 65.92999999999999 39.18 C 66.15 39.56 66.31 39.94 66.41 40.34 L 66.41 40.34 z M 66.79 64.35 C 67.41000000000001 64.08999999999999 68.01 63.589999999999996 68.47000000000001 62.919999999999995 C 69.12000000000002 61.96999999999999 69.49000000000001 60.699999999999996 69.31000000000002 59.269999999999996 L 69.30000000000001 59.23 L 69.3 59.2 L 69.3 59.2 C 69.23 58.660000000000004 69.48 58.1 69.98 57.800000000000004 C 70.85000000000001 57.290000000000006 71.48 56.730000000000004 71.92 56.13 C 72.4 55.470000000000006 72.64 54.78 72.66 54.1 C 72.67999999999999 53.410000000000004 72.47999999999999 52.72 72.1 52.07 C 71.75 51.47 71.25 50.92 70.64 50.45 C 70.12 50.11 69.88 49.45 70.09 48.830000000000005 C 70.3 48.21000000000001 70.35000000000001 47.620000000000005 70.29 47.050000000000004 C 70.19000000000001 46.17 69.80000000000001 45.36000000000001 69.25 44.7 C 68.69 44.040000000000006 67.98 43.550000000000004 67.26 43.300000000000004 C 66.95 43.2 66.64 43.14000000000001 66.35000000000001 43.14000000000001 C 66.13000000000001 43.800000000000004 65.77000000000001 44.46000000000001 65.23 45.10000000000001 C 64.73 45.69000000000001 63.85 45.77000000000001 63.260000000000005 45.27000000000001 C 62.67 44.77000000000001 62.59 43.89000000000001 63.09 43.30000000000001 C 63.910000000000004 42.33000000000001 63.92 41.31000000000001 63.49 40.52000000000001 C 63.190000000000005 39.96000000000001 62.690000000000005 39.49000000000001 62.1 39.20000000000001 C 61.53 38.91000000000001 60.89 38.79000000000001 60.28 38.92000000000001 C 59.39 39.10000000000001 58.53 39.85000000000001 57.97 41.41000000000001 L 57.97 65.11000000000001 C 58.08 65.27000000000001 58.15 65.45000000000002 58.18 65.66000000000001 C 58.5 67.62 59.33 68.56000000000002 60.26 68.82000000000001 C 61.12 69.06 62.12 68.77000000000001 62.92 68.2 C 63.7 67.64 64.26 66.83 64.27 65.98 C 64.28 65.01 63.54 63.900000000000006 61.56999999999999 62.89 C 60.879999999999995 62.54 60.599999999999994 61.69 60.949999999999996 61 C 61.3 60.31 62.15 60.03 62.839999999999996 60.38 C 65.07 61.51 66.29 62.92 66.79 64.35 L 66.79 64.35 z M 46.37 43.27 C 45.8 43.46 45.239999999999995 43.85 44.769999999999996 44.39 C 44.74999999999999 44.42 44.73 44.44 44.709999999999994 44.46 C 44.06999999999999 45.24 43.63999999999999 46.28 43.589999999999996 47.480000000000004 C 43.58 47.800000000000004 43.589999999999996 48.14 43.63999999999999 48.49 L 43.63999999999999 48.49 C 43.709999999999994 49.02 43.46999999999999 49.57 42.989999999999995 49.88 C 42.14999999999999 50.400000000000006 41.529999999999994 50.96 41.099999999999994 51.550000000000004 C 40.57999999999999 52.25000000000001 40.349999999999994 52.99 40.339999999999996 53.690000000000005 C 40.33 54.410000000000004 40.55 55.120000000000005 40.949999999999996 55.77 C 41.29 56.32 41.74999999999999 56.82 42.31999999999999 57.24 C 42.82999999999999 57.59 43.059999999999995 58.24 42.85999999999999 58.85 C 42.63999999999999 59.51 42.58999999999999 60.15 42.669999999999995 60.75 C 42.78999999999999 61.61 43.19 62.39 43.739999999999995 63.03 C 44.28999999999999 63.67 44.98 64.14 45.69 64.38 C 45.919999999999995 64.46 46.15 64.50999999999999 46.37 64.53 C 46.879999999999995 63.04 48.16 61.57 50.489999999999995 60.38 C 51.17999999999999 60.03 52.019999999999996 60.300000000000004 52.379999999999995 60.99 C 52.73 61.68 52.459999999999994 62.52 51.769999999999996 62.88 C 49.67999999999999 63.940000000000005 48.9 65.14 48.9 66.18 C 48.9 66.97000000000001 49.36 67.72000000000001 50.03 68.24000000000001 C 50.71 68.77000000000001 51.59 69.04 52.410000000000004 68.87 C 53.440000000000005 68.66000000000001 54.440000000000005 67.68 54.970000000000006 65.54 C 55.00000000000001 65.4 55.06000000000001 65.27000000000001 55.13 65.15 L 55.13 42.64 C 55.1 42.59 55.07 42.53 55.04 42.47 L 55.03 42.449999999999996 L 55.02 42.42999999999999 L 55.010000000000005 42.40999999999999 L 55.010000000000005 42.39999999999999 L 55.010000000000005 42.38999999999999 L 55.00000000000001 42.36999999999999 L 55.00000000000001 42.35999999999999 L 55.00000000000001 42.349999999999994 L 55 42.35 L 55 42.35 C 54.99 42.31 54.98 42.27 54.97 42.230000000000004 C 54.44 40.1 53.44 39.13 52.41 38.92 C 51.739999999999995 38.78 51.019999999999996 38.940000000000005 50.41 39.300000000000004 C 49.79 39.660000000000004 49.29 40.220000000000006 49.05 40.86000000000001 C 48.739999999999995 41.70000000000001 48.93 42.74000000000001 50 43.730000000000004 C 50.57 44.260000000000005 50.6 45.14 50.08 45.71 C 49.55 46.28 48.67 46.31 48.1 45.79 C 47.23 44.97 46.67 44.12 46.37 43.27 L 46.37 43.27 z M 46.66 47.9 C 47.209999999999994 47.36 48.099999999999994 47.36 48.65 47.92 C 49.19 48.47 49.19 49.36 48.629999999999995 49.910000000000004 C 47.66 50.86000000000001 47.15 52.1 47.099999999999994 53.35 C 47.05 54.65 47.46999999999999 55.99 48.35999999999999 57.09 C 48.849999999999994 57.690000000000005 48.74999999999999 58.580000000000005 48.14999999999999 59.06 C 47.54999999999999 59.550000000000004 46.65999999999999 59.45 46.17999999999999 58.85 C 44.849999999999994 57.2 44.21999999999999 55.2 44.29999999999999 53.24 C 44.37 51.29 45.15 49.38 46.66 47.9 L 46.66 47.9 z M 63.43 49.38 C 62.8 48.92 62.66 48.050000000000004 63.12 47.42 C 63.58 46.79 64.45 46.65 65.08 47.11 C 65.32 47.29 65.55 47.47 65.76 47.66 C 67.34 49.089999999999996 68.21000000000001 50.97 68.37 52.919999999999995 C 68.53 54.849999999999994 67.99000000000001 56.839999999999996 66.77000000000001 58.50999999999999 C 66.75000000000001 58.53999999999999 66.72000000000001 58.57999999999999 66.69000000000001 58.60999999999999 C 66.52000000000001 58.83999999999999 66.35000000000001 59.03999999999999 66.19000000000001 59.22999999999999 C 65.67000000000002 59.80999999999999 64.78000000000002 59.84999999999999 64.20000000000002 59.32999999999999 C 63.62000000000002 58.80999999999999 63.58000000000002 57.919999999999995 64.10000000000002 57.33999999999999 C 64.23000000000002 57.18999999999999 64.34000000000002 57.05999999999999 64.44000000000003 56.92999999999999 C 64.46000000000002 56.89999999999999 64.47000000000003 56.879999999999995 64.49000000000002 56.849999999999994 C 65.30000000000003 55.73 65.66000000000003 54.41 65.56000000000002 53.129999999999995 C 65.46000000000002 51.87 64.90000000000002 50.66 63.88000000000002 49.739999999999995 C 63.74 49.62 63.59 49.5 63.43 49.38 L 63.43 49.38 z M 2.18 58.86 C 1.01 58.89 0.04 57.98 0 56.81 C -0.04 55.64 0.88 54.67 2.05 54.63 L 10.75 54.330000000000005 C 11.92 54.290000000000006 12.89 55.21000000000001 12.93 56.38 C 12.969999999999999 57.550000000000004 12.049999999999999 58.52 10.879999999999999 58.56 L 2.18 58.86 L 2.18 58.86 z M 110.68 50.25 C 111.84 50.13 112.88000000000001 50.98 113 52.14 C 113.12 53.3 112.27 54.34 111.11 54.46 L 102.45 55.37 C 101.29 55.489999999999995 100.25 54.64 100.13000000000001 53.48 C 100.01 52.32 100.86000000000001 51.279999999999994 102.02000000000001 51.16 L 110.68 50.25 L 110.68 50.25 z M 94.91 14.78 C 95.56 13.809999999999999 96.86999999999999 13.549999999999999 97.84 14.2 C 98.81 14.85 99.07000000000001 16.16 98.42 17.13 L 93.58 24.369999999999997 C 92.92999999999999 25.339999999999996 91.62 25.599999999999998 90.64999999999999 24.949999999999996 C 89.67999999999999 24.299999999999997 89.41999999999999 22.989999999999995 90.07 22.019999999999996 L 94.91 14.78 L 94.91 14.78 z M 57.63 2.06 C 57.660000000000004 0.8900000000000001 58.63 -0.029999999999999805 59.790000000000006 0 C 60.96000000000001 0.03 61.88000000000001 1 61.85000000000001 2.16 L 61.63000000000001 10.86 C 61.60000000000001 12.03 60.63000000000001 12.95 59.47000000000001 12.92 C 58.30000000000001 12.89 57.38000000000001 11.92 57.41000000000001 10.76 L 57.63 2.06 L 57.63 2.06 z M 13.88 15.53 C 13.020000000000001 14.729999999999999 12.98 13.389999999999999 13.770000000000001 12.54 C 14.570000000000002 11.68 15.910000000000002 11.639999999999999 16.76 12.43 L 23.130000000000003 18.37 C 23.990000000000002 19.17 24.03 20.51 23.240000000000002 21.36 C 22.44 22.22 21.1 22.259999999999998 20.25 21.47 L 13.88 15.53 L 13.88 15.53 z M 47.88 96.95 L 66.37 94.33 C 67.96000000000001 87.63 71.42 83.6 75.17 79.25 C 78.25 75.67 81.53 71.85 83.93 65.91 C 85.69000000000001 61.559999999999995 86.34 57.48 86.24000000000001 53.72 C 86.14000000000001 49.97 85.28000000000002 46.51 84.00000000000001 43.379999999999995 C 81.70000000000002 37.74999999999999 77.49000000000001 33.269999999999996 72.36000000000001 30.229999999999997 C 68.25000000000001 27.799999999999997 63.56000000000002 26.289999999999996 58.77000000000001 25.859999999999996 C 54.000000000000014 25.419999999999995 49.13000000000001 26.049999999999997 44.64000000000001 27.879999999999995 C 39.38000000000001 30.029999999999994 34.650000000000006 33.849999999999994 31.250000000000007 39.599999999999994 C 28.610000000000007 44.71999999999999 27.390000000000008 49.61999999999999 27.35000000000001 54.33 C 27.31000000000001 59.07 28.460000000000008 63.66 30.550000000000008 68.13 C 32.68000000000001 72.69 35.52000000000001 75.92999999999999 38.24000000000001 79.05 C 42.47 83.9 46.48 88.49 47.88 96.95 L 47.88 96.95 L 47.88 96.95 z M 65.62 99.02 L 48.35000000000001 101.47 C 48.400000000000006 102.57 48.42000000000001 103.72 48.400000000000006 104.94 L 65.45 102.52 C 65.47 101.29 65.52 100.12 65.62 99.02 L 65.62 99.02 L 65.62 99.02 z M 48.49 109.52 C 48.61 110.44 48.79 111.28 49.02 112.06 L 65.57000000000001 110.02 C 65.68 109.16 65.7 108.25 65.62 107.28 L 65.62 107.28 L 65.62 107.26 L 65.61 107.09 L 48.49 109.52 L 48.49 109.52 L 48.49 109.52 z M 51.37 116.36 C 52.01 117.03 52.72 117.55 53.47 117.91 C 54.62 118.47 55.89 118.7 57.14 118.63 C 58.42 118.55 59.71 118.16 60.88 117.47999999999999 C 61.980000000000004 116.83999999999999 62.97 115.94999999999999 63.760000000000005 114.82999999999998 L 51.37 116.36 L 51.37 116.36 L 51.37 116.36 z" stroke-linecap="round" />
</g>
</svg>